<?xml version="1.0" encoding="utf-8"?>
<svg version="1.1" id="envelope-reversed" xmlns="http://www.w3.org/2000/svg" xmlns:xlink="http://www.w3.org/1999/xlink" x="0px" y="0px"
	 viewBox="0 0 512 384" style="enable-background:new 0 0 512 384;" xml:space="preserve">
<path class="icon__envelope-reversed" d="M502.3,126.8c2.6-2,6.4-1.5,8.4,1.1c0.8,1,1.2,2.3,1.2,3.6V336c0,26.5-21.5,48-48,48H48
	c-26.5,0-48-21.5-48-48V131.6c0-3.3,2.7-6,6-6c1.4,0,2.7,0.5,3.7,1.3c22.4,17.4,52.1,39.5,154.1,113.6
	c21.1,15.4,56.7,47.8,92.2,47.6c35.7,0.3,72-32.8,92.3-47.6C450.3,166.4,479.9,144.2,502.3,126.8z M256,256
	c23.2,0.4,56.6-29.2,73.4-41.4c132.7-96.3,142.8-104.7,173.4-128.7c5.8-4.5,9.2-11.5,9.2-18.9V48c0-26.5-21.5-48-48-48H48
	C21.5,0,0,21.5,0,48c0,0,0,0,0,0v19c0,7.4,3.4,14.3,9.2,18.9c30.6,23.9,40.7,32.4,173.4,128.7C199.4,226.8,232.8,256.4,256,256z"/>
</svg>
