<svg xmlns="http://www.w3.org/2000/svg" viewBox="0 0 119.3 74.2">
  <title>The logo for MJBritton Digital and Design</title>
  <path class="logo__brand-color--blue" d="M99.6 12.5c-5.6 0-10.7 2.4-14.3 6.2V7.2h-5.3v24.9c0 10.9 8.8 19.7 19.7 19.7 10.9 0 19.7-8.9 19.7-19.7S110.5 12.5 99.6 12.5zM99.6 46.5c-7.9 0-14.3-6.5-14.3-14.4s6.4-14.3 14.3-14.3c8 0 14.4 6.4 14.4 14.3S107.5 46.5 99.6 46.5z"/>
  <path class="logo__brand-color--blue" d="M77.1 3.6c0-2-1.7-3.6-3.6-3.6 -2 0-3.6 1.6-3.6 3.6 0 1.9 1.6 3.6 3.6 3.6C75.4 7.2 77.1 5.5 77.1 3.6"/>
  <path class="logo__brand-color--blue" d="M76.2 13.2v18.9c0 10.9-8.8 19.7-19.7 19.7v-5.3c7.9-0.1 14.3-6.5 14.3-14.4V13.2H76.2z"/>
  <path class="logo__brand-color--blue" d="M52.8 51.5v-25c0-7.8-6.5-14.2-14.6-14.2 -4.9 0-9.2 2.3-11.8 5.9 -2.7-3.6-7-5.9-11.8-5.9C6.5 12.3 0 18.6 0 26.4v25.1h5.5v-25c0-4.9 4.1-8.9 9-8.9 5 0 9.1 3.9 9.1 8.8v25.1h5.5v-25c0-4.9 4.1-8.9 9.1-8.9s9.1 3.9 9.1 8.8v25.1H52.8z"/>
  <path d="M113.1 73.4V62.1l4.4 11.4c0.1 0.3 0.3 0.5 0.7 0.5h0.5c0.4 0 0.6-0.2 0.6-0.6V59.2c0-0.4-0.2-0.6-0.6-0.6h-0.3c-0.4 0-0.6 0.2-0.6 0.6v11.1l-4.4-11.2c-0.1-0.3-0.3-0.5-0.6-0.5h-0.6c-0.4 0-0.6 0.2-0.6 0.6v14.3c0 0.4 0.2 0.6 0.6 0.6h0.3C112.9 74 113.1 73.8 113.1 73.4"/>
  <path d="M108.5 66.3h-2.7c-0.4 0-0.6 0.2-0.6 0.6v0.2c0 0.4 0.2 0.6 0.6 0.6h1.6v2.8c0 1.6-0.6 2.2-2.1 2.2s-2.1-0.6-2.1-2.2v-8.4c0-1.6 0.6-2.2 2.1-2.2s2.1 0.6 2.1 2.2v1.1c0 0.4 0.2 0.6 0.6 0.6h0.4c0.4 0 0.6-0.2 0.6-0.6v-1.5c0-2.2-1.3-3.3-3.6-3.3h-0.2c-2.3 0-3.6 1.1-3.6 3.3v9.2c0 2.3 1.3 3.3 3.6 3.3h0.2c2.3 0 3.6-1 3.6-3.3v-4.1C109.1 66.5 108.9 66.3 108.5 66.3"/>
  <path d="M98.9 73.4V59.2c0-0.4-0.2-0.6-0.6-0.6h-0.4c-0.4 0-0.6 0.2-0.6 0.6v14.3c0 0.4 0.2 0.6 0.6 0.6h0.4C98.7 74 98.9 73.8 98.9 73.4"/>
  <path d="M94.8 63.4v-1.8c0-2.2-1.4-3.2-3.5-3.2h0c-2.1 0-3.5 1-3.5 3.2v1.8c0 1.3 0.6 2 2 2.7l2.2 1.2c1.1 0.6 1.5 1 1.5 2v1.2c0 1.5-0.6 2.2-2 2.2 -1.4 0-2-0.7-2-2.2V69c0-0.4-0.2-0.6-0.6-0.6h-0.4c-0.4 0-0.6 0.2-0.6 0.6v2c0 2.3 1.2 3.2 3.6 3.2h0c2.3 0 3.6-1 3.6-3.2v-2c0-1.3-0.8-2.1-2-2.8l-2.2-1.2c-1-0.6-1.4-0.9-1.4-1.9V62c0-1.5 0.6-2.1 2-2.1s2 0.6 2 2.1v1.5c0 0.4 0.2 0.6 0.6 0.6h0.4C94.6 64 94.8 63.8 94.8 63.4"/>
  <path d="M86.1 73.4v-0.3c0-0.4-0.2-0.6-0.6-0.6h-4.2v-5.7h3.4c0.4 0 0.6-0.2 0.6-0.6v-0.3c0-0.4-0.2-0.6-0.6-0.6h-3.4V60h4.1c0.4 0 0.6-0.2 0.6-0.6v-0.3c0-0.4-0.2-0.6-0.6-0.6h-5.1c-0.4 0-0.6 0.2-0.6 0.6v14.3c0 0.4 0.2 0.6 0.6 0.6h5.2C85.9 74 86.1 73.8 86.1 73.4"/>
  <path d="M73.5 58.6h-3.1c-0.4 0-0.6 0.2-0.6 0.6v14.3c0 0.4 0.2 0.6 0.6 0.6h3.1c2.3 0 3.6-1.1 3.6-3.3v-8.9C77.1 59.7 75.9 58.6 73.5 58.6zM75.5 70.4c0 1.6-0.6 2.2-2.1 2.2h-2V60h2c1.5 0 2.1 0.6 2.1 2.2V70.4z"/>
  <path d="M64.4 73.3l-1.6-2.4 1.1-4.7c0.1-0.4-0.1-0.6-0.5-0.6H63c-0.3 0-0.6 0.2-0.6 0.5l-0.8 3.2 -2.9-4.1c-1.1-1.5-1.2-1.8-1.2-2.7v-0.6c0-1.6 0.8-2.1 2-2.1 1.2 0 2 0.5 2 2.1v1.2c0 0.4 0.2 0.6 0.6 0.6h0.4c0.4 0 0.6-0.2 0.6-0.6v-1.5c0-2.2-1.2-3.2-3.5-3.2h0c-2.3 0-3.5 1-3.5 3.2v0.9c0 1 0.3 1.7 0.9 2.6 -0.7 0.4-1.1 1.3-1.1 2.5v3.4c0 1.7 0.8 3.1 3.2 3.1h0.2c1.6 0 2.6-0.6 3.1-1.6l0.8 1.1c0.2 0.3 0.4 0.4 0.7 0.4h0.4C64.5 74 64.7 73.7 64.4 73.3zM59.2 72.8c-1.3 0-1.9-0.7-1.9-2.3v-3.2c0-0.5 0.2-1 0.4-1.3l3.5 5C60.9 72.3 60.3 72.8 59.2 72.8z"/>
  <path d="M50.4 72.6h-3.8V59.2c0-0.4-0.2-0.6-0.6-0.6h-0.4c-0.4 0-0.6 0.2-0.6 0.6v14.3c0 0.4 0.2 0.6 0.6 0.6h4.8c0.4 0 0.6-0.2 0.6-0.6v-0.3C51 72.8 50.8 72.6 50.4 72.6"/>
  <path d="M43.1 73.4L40 59.1c-0.1-0.4-0.3-0.5-0.6-0.5h-0.8c-0.4 0-0.6 0.2-0.6 0.5l-3 14.3c-0.1 0.4 0.1 0.6 0.5 0.6h0.4c0.4 0 0.6-0.2 0.6-0.5l0.7-3.3h3.8l0.7 3.3c0.1 0.4 0.3 0.5 0.6 0.5h0.5C42.9 74 43.1 73.8 43.1 73.4zM37.3 68.8l1.6-8 1.6 8H37.3z"/>
  <path d="M34.4 58.6h-6.1c-0.4 0-0.6 0.2-0.6 0.6v0.3c0 0.4 0.2 0.6 0.6 0.6h2.2v13.4c0 0.4 0.2 0.6 0.6 0.6h0.4c0.4 0 0.6-0.2 0.6-0.6V60h2.3c0.4 0 0.6-0.2 0.6-0.6v-0.3C35 58.8 34.8 58.6 34.4 58.6"/>
  <path d="M26.1 73.4V59.2c0-0.4-0.2-0.6-0.6-0.6H25c-0.4 0-0.6 0.2-0.6 0.6v14.3c0 0.4 0.2 0.6 0.6 0.6h0.4C25.8 74 26.1 73.8 26.1 73.4"/>
  <path d="M21.2 66.3h-2.7c-0.4 0-0.6 0.2-0.6 0.6v0.2c0 0.4 0.2 0.6 0.6 0.6h1.6v2.8c0 1.6-0.6 2.2-2.1 2.2 -1.5 0-2.1-0.6-2.1-2.2v-8.4c0-1.6 0.6-2.2 2.1-2.2 1.5 0 2.1 0.6 2.1 2.2v1.1c0 0.4 0.2 0.6 0.6 0.6h0.4c0.4 0 0.6-0.2 0.6-0.6v-1.5c0-2.2-1.3-3.3-3.6-3.3H18c-2.3 0-3.6 1.1-3.6 3.3v9.2c0 2.3 1.3 3.3 3.6 3.3h0.2c2.3 0 3.6-1 3.6-3.3v-4.1C21.8 66.5 21.6 66.3 21.2 66.3"/>
  <path d="M11.6 73.4V59.2c0-0.4-0.2-0.6-0.6-0.6h-0.4c-0.4 0-0.6 0.2-0.6 0.6v14.3c0 0.4 0.2 0.6 0.6 0.6H11C11.4 74 11.6 73.8 11.6 73.4"/>
  <path d="M3.7 58.6H0.6c-0.4 0-0.6 0.2-0.6 0.6v14.3C0 73.8 0.2 74 0.6 74h3.1C6 74 7.3 73 7.3 70.8v-8.9C7.3 59.7 6 58.6 3.7 58.6zM5.7 70.4c0 1.6-0.6 2.2-2.1 2.2h-2V60h2c1.5 0 2.1 0.6 2.1 2.2V70.4z"/>
</svg>